<svg width="100" height="50" viewBox="0 0 100 50" fill="none" xmlns="http://www.w3.org/2000/svg">
<path d="M95.2292 32.4583L85.8126 23.0624C86.0096 22.1028 86.1074 21.1254 86.1042 20.1458C86.1035 17.4596 85.4256 14.817 84.1333 12.4622C82.8409 10.1074 80.9758 8.11633 78.7103 6.67313C76.4448 5.22993 73.852 4.38114 71.1716 4.20521C68.4913 4.02928 65.8098 4.53189 63.3751 5.66659C63.0666 5.8075 62.7972 6.02158 62.5903 6.29025C62.3833 6.55891 62.2451 6.87404 62.1876 7.20825C62.1303 7.53823 62.1534 7.87715 62.2549 8.19629C62.3565 8.51543 62.5335 8.80539 62.7709 9.04159L71.8334 18.0833L68.0834 21.8333L59.0417 12.7708C58.8035 12.537 58.5127 12.3639 58.1936 12.266C57.8746 12.1681 57.5367 12.1483 57.2084 12.2083C56.8763 12.2637 56.5625 12.3987 56.294 12.6019C56.0255 12.8051 55.8103 13.0703 55.6667 13.3749C54.5282 15.8176 54.0261 18.5086 54.2069 21.1976C54.3878 23.8865 55.2458 26.486 56.7011 28.7542C58.1565 31.0225 60.1619 32.8858 62.5308 34.1709C64.8997 35.4559 67.5551 36.121 70.2501 36.1041C71.2297 36.1072 72.2071 36.0095 73.1667 35.8124L82.5626 45.2291C82.7562 45.4244 82.9867 45.5793 83.2405 45.6851C83.4944 45.7909 83.7667 45.8453 84.0417 45.8453C84.3168 45.8453 84.5891 45.7909 84.8429 45.6851C85.0968 45.5793 85.3272 45.4244 85.5209 45.2291C85.7162 45.0354 85.8712 44.805 85.9769 44.5511C86.0827 44.2972 86.1371 44.0249 86.1371 43.7499C86.1371 43.4749 86.0827 43.2026 85.9769 42.9487C85.8712 42.6948 85.7162 42.4644 85.5209 42.2708L75.3126 32.0624C75.0575 31.809 74.7411 31.6259 74.3943 31.531C74.0475 31.4361 73.682 31.4326 73.3334 31.5208C72.3275 31.7901 71.2914 31.9301 70.2501 31.9374C68.6918 31.9512 67.1463 31.6565 65.7024 31.0703C64.2586 30.4841 62.945 29.6181 61.8373 28.522C60.7297 27.4259 59.8498 26.1216 59.2484 24.684C58.6471 23.2464 58.3361 21.704 58.3334 20.1458C58.3307 19.4479 58.3864 18.751 58.5001 18.0624L66.6667 26.2499C66.8604 26.4452 67.0908 26.6002 67.3447 26.7059C67.5986 26.8117 67.8709 26.8662 68.1459 26.8662C68.4209 26.8662 68.6932 26.8117 68.9471 26.7059C69.201 26.6002 69.4314 26.4452 69.6251 26.2499L76.2501 19.5624C76.6256 19.1739 76.8355 18.6548 76.8355 18.1145C76.8355 17.5742 76.6256 17.0551 76.2501 16.6666L68.1459 8.49992C68.8346 8.38744 69.5314 8.3317 70.2292 8.33325C73.3585 8.33877 76.3577 9.58574 78.5685 11.8004C80.7792 14.0151 82.0209 17.0165 82.0209 20.1458C82.0136 21.1871 81.8736 22.2232 81.6042 23.2291C81.516 23.5777 81.5196 23.9432 81.6145 24.29C81.7094 24.6368 81.8925 24.9532 82.1459 25.2083L92.3542 35.4166C92.7465 35.8089 93.2786 36.0293 93.8334 36.0293C94.3882 36.0293 94.9203 35.8089 95.3126 35.4166C95.7049 35.0243 95.9253 34.4922 95.9253 33.9374C95.9253 33.3826 95.7049 32.8506 95.3126 32.4583H95.2292Z" fill="black"/>
<path d="M21.2709 30.7295C21.4646 30.9248 21.695 31.0797 21.9489 31.1855C22.2028 31.2913 22.4751 31.3457 22.7501 31.3457C23.0251 31.3457 23.2974 31.2913 23.5513 31.1855C23.8052 31.0797 24.0356 30.9248 24.2292 30.7295L32.7292 22.2295C33.1215 21.8372 33.3419 21.3051 33.3419 20.7503C33.3419 20.1955 33.1215 19.6635 32.7292 19.2712C32.3369 18.8789 31.8049 18.6585 31.2501 18.6585C30.6953 18.6585 30.1632 18.8789 29.7709 19.2712L22.7501 26.3128L20.2292 23.7712C19.8369 23.3789 19.3049 23.1585 18.7501 23.1585C18.1953 23.1585 17.6632 23.3789 17.2709 23.7712C16.8786 24.1635 16.6582 24.6955 16.6582 25.2503C16.6582 25.8051 16.8786 26.3372 17.2709 26.7295L21.2709 30.7295ZM43.7501 4.16699H6.25008C5.69755 4.16699 5.16764 4.38649 4.77694 4.77719C4.38624 5.16789 4.16675 5.69779 4.16675 6.25033V43.7503C4.16675 44.3029 4.38624 44.8328 4.77694 45.2235C5.16764 45.6142 5.69755 45.8337 6.25008 45.8337H43.7501C44.3026 45.8337 44.8325 45.6142 45.2232 45.2235C45.6139 44.8328 45.8334 44.3029 45.8334 43.7503V6.25033C45.8334 5.69779 45.6139 5.16789 45.2232 4.77719C44.8325 4.38649 44.3026 4.16699 43.7501 4.16699V4.16699ZM41.6667 41.667H8.33341V8.33366H41.6667V41.667Z" fill="black"/>
</svg>
