<svg width="100" height="50" viewBox="0 0 100 50" fill="none" xmlns="http://www.w3.org/2000/svg">
<path d="M93.7501 41.667H91.6667V10.417C91.6667 9.86446 91.4473 9.33455 91.0566 8.94385C90.6659 8.55315 90.1359 8.33366 89.5834 8.33366C89.0309 8.33366 88.501 8.55315 88.1103 8.94385C87.7196 9.33455 87.5001 9.86446 87.5001 10.417V41.667H83.3334V27.0837C83.3334 26.5311 83.1139 26.0012 82.7232 25.6105C82.3325 25.2198 81.8026 25.0003 81.2501 25.0003C80.6975 25.0003 80.1676 25.2198 79.7769 25.6105C79.3862 26.0012 79.1667 26.5311 79.1667 27.0837V41.667H75.0001V18.7503C75.0001 18.1978 74.7806 17.6679 74.3899 17.2772C73.9992 16.8865 73.4693 16.667 72.9167 16.667C72.3642 16.667 71.8343 16.8865 71.4436 17.2772C71.0529 17.6679 70.8334 18.1978 70.8334 18.7503V41.667H66.6667V35.417C66.6667 34.8645 66.4473 34.3346 66.0566 33.9439C65.6659 33.5531 65.1359 33.3337 64.5834 33.3337C64.0309 33.3337 63.501 33.5531 63.1103 33.9439C62.7196 34.3346 62.5001 34.8645 62.5001 35.417V41.667H58.3334V6.25033C58.3334 5.69779 58.1139 5.16789 57.7232 4.77719C57.3325 4.38649 56.8026 4.16699 56.2501 4.16699C55.6975 4.16699 55.1676 4.38649 54.7769 4.77719C54.3862 5.16789 54.1667 5.69779 54.1667 6.25033V43.7503C54.1667 44.3029 54.3862 44.8328 54.7769 45.2235C55.1676 45.6142 55.6975 45.8337 56.2501 45.8337H93.7501C94.3026 45.8337 94.8325 45.6142 95.2232 45.2235C95.6139 44.8328 95.8334 44.3029 95.8334 43.7503C95.8334 43.1978 95.6139 42.6679 95.2232 42.2772C94.8325 41.8865 94.3026 41.667 93.7501 41.667Z" fill="black"/>
<path d="M41.6666 16.667L29.1666 5.70871C28.0207 4.68381 26.5373 4.11719 25 4.11719C23.4626 4.11719 21.9792 4.68381 20.8333 5.70871L8.33329 16.667C7.67155 17.2589 7.1435 17.9849 6.78427 18.7967C6.42504 19.6086 6.2429 20.4876 6.24995 21.3754V39.5837C6.24995 41.2413 6.90843 42.831 8.08054 44.0031C9.25264 45.1752 10.8424 45.8337 12.5 45.8337H37.5C39.1576 45.8337 40.7473 45.1752 41.9194 44.0031C43.0915 42.831 43.75 41.2413 43.75 39.5837V21.3545C43.7541 20.4703 43.5705 19.5953 43.2113 18.7872C42.8522 17.9792 42.3257 17.2565 41.6666 16.667V16.667ZM29.1666 41.667H20.8333V31.2504C20.8333 30.6978 21.0528 30.1679 21.4435 29.7772C21.8342 29.3865 22.3641 29.167 22.9166 29.167H27.0833C27.6358 29.167 28.1657 29.3865 28.5564 29.7772C28.9471 30.1679 29.1666 30.6978 29.1666 31.2504V41.667ZM39.5833 39.5837C39.5833 40.1362 39.3638 40.6662 38.9731 41.0569C38.5824 41.4476 38.0525 41.667 37.5 41.667H33.3333V31.2504C33.3333 29.5928 32.6748 28.0031 31.5027 26.831C30.3306 25.6589 28.7409 25.0004 27.0833 25.0004H22.9166C21.259 25.0004 19.6693 25.6589 18.4972 26.831C17.3251 28.0031 16.6666 29.5928 16.6666 31.2504V41.667H12.5C11.9474 41.667 11.4175 41.4476 11.0268 41.0569C10.6361 40.6662 10.4166 40.1362 10.4166 39.5837V21.3545C10.417 21.0587 10.4804 20.7664 10.6025 20.497C10.7246 20.2276 10.9027 19.9873 11.125 19.792L23.625 8.85455C24.0051 8.52055 24.4939 8.33635 25 8.33635C25.506 8.33635 25.9948 8.52055 26.375 8.85455L38.875 19.792C39.0972 19.9873 39.2753 20.2276 39.3974 20.497C39.5196 20.7664 39.5829 21.0587 39.5833 21.3545V39.5837Z" fill="black"/>
</svg>
