<svg width="100" height="50" viewBox="0 0 100 50" fill="none" xmlns="http://www.w3.org/2000/svg">
<path d="M80.8542 25.5837C82.173 24.1675 82.9158 22.3103 82.9376 20.3753C82.9376 18.2867 82.1079 16.2837 80.631 14.8069C79.1542 13.33 77.1512 12.5003 75.0626 12.5003C72.974 12.5003 70.971 13.33 69.4941 14.8069C68.0173 16.2837 67.1876 18.2867 67.1876 20.3753C67.2093 22.3103 67.9522 24.1675 69.2709 25.5837C67.4348 26.498 65.8547 27.8544 64.6728 29.5308C63.4909 31.2073 62.7443 33.1512 62.5001 35.1878C62.4393 35.7404 62.6005 36.2944 62.9482 36.7281C63.296 37.1618 63.8017 37.4395 64.3542 37.5003C64.9068 37.5611 65.4608 37.3999 65.8945 37.0522C66.3282 36.7045 66.606 36.1987 66.6667 35.6462C66.9154 33.6277 67.8935 31.7698 69.4169 30.4225C70.9403 29.0752 72.9039 28.3315 74.9376 28.3315C76.9713 28.3315 78.9348 29.0752 80.4582 30.4225C81.9817 31.7698 82.9598 33.6277 83.2084 35.6462C83.2664 36.1804 83.5285 36.6715 83.94 37.017C84.3515 37.3625 84.8806 37.5357 85.4167 37.5003H85.6459C86.192 37.4375 86.6912 37.1614 87.0346 36.7321C87.378 36.3028 87.5378 35.7552 87.4792 35.2087C87.2531 33.1828 86.53 31.2441 85.3743 29.565C84.2185 27.8859 82.6658 26.5182 80.8542 25.5837V25.5837ZM75.0001 24.0837C74.2666 24.0837 73.5497 23.8662 72.9398 23.4587C72.33 23.0512 71.8547 22.4721 71.574 21.7944C71.2934 21.1168 71.2199 20.3712 71.363 19.6519C71.5061 18.9325 71.8593 18.2718 72.3779 17.7531C72.8965 17.2345 73.5573 16.8813 74.2766 16.7382C74.996 16.5952 75.7416 16.6686 76.4192 16.9493C77.0968 17.2299 77.676 17.7053 78.0834 18.3151C78.4909 18.9249 78.7084 19.6419 78.7084 20.3753C78.7084 21.3588 78.3177 22.3021 77.6223 22.9975C76.9268 23.693 75.9836 24.0837 75.0001 24.0837V24.0837ZM89.5834 4.16699H60.4167C58.7591 4.16699 57.1694 4.82547 55.9973 5.99757C54.8252 7.16968 54.1667 8.75939 54.1667 10.417V39.5837C54.1667 41.2413 54.8252 42.831 55.9973 44.0031C57.1694 45.1752 58.7591 45.8337 60.4167 45.8337H89.5834C91.241 45.8337 92.8307 45.1752 94.0028 44.0031C95.1749 42.831 95.8334 41.2413 95.8334 39.5837V10.417C95.8334 8.75939 95.1749 7.16968 94.0028 5.99757C92.8307 4.82547 91.241 4.16699 89.5834 4.16699ZM91.6667 39.5837C91.6667 40.1362 91.4473 40.6661 91.0566 41.0568C90.6659 41.4475 90.1359 41.667 89.5834 41.667H60.4167C59.8642 41.667 59.3343 41.4475 58.9436 41.0568C58.5529 40.6661 58.3334 40.1362 58.3334 39.5837V10.417C58.3334 9.86446 58.5529 9.33455 58.9436 8.94385C59.3343 8.55315 59.8642 8.33366 60.4167 8.33366H89.5834C90.1359 8.33366 90.6659 8.55315 91.0566 8.94385C91.4473 9.33455 91.6667 9.86446 91.6667 10.417V39.5837Z" fill="black"/>
<path d="M44.7707 21.2295L42.6874 20.0837L23.9374 9.66699H23.7082C23.5805 9.61299 23.448 9.57114 23.3124 9.54199H22.9166H22.5416C22.3992 9.57116 22.2598 9.61299 22.1249 9.66699H21.8957L3.14574 20.0837C2.82512 20.2654 2.55844 20.5289 2.3729 20.8473C2.18736 21.1657 2.0896 21.5276 2.0896 21.8962C2.0896 22.2647 2.18736 22.6266 2.3729 22.945C2.55844 23.2635 2.82512 23.527 3.14574 23.7087L8.33324 26.5837V36.4587C8.33324 38.1163 8.99172 39.706 10.1638 40.8781C11.3359 42.0502 12.9256 42.7087 14.5832 42.7087H31.2499C32.9075 42.7087 34.4972 42.0502 35.6693 40.8781C36.8414 39.706 37.4999 38.1163 37.4999 36.4587V26.5837L41.6666 24.2503V30.2087C41.6666 30.7612 41.8861 31.2911 42.2768 31.6818C42.6675 32.0725 43.1974 32.292 43.7499 32.292C44.3024 32.292 44.8323 32.0725 45.223 31.6818C45.6137 31.2911 45.8332 30.7612 45.8332 30.2087V23.042C45.8326 22.6728 45.7339 22.3105 45.5472 21.992C45.3605 21.6735 45.0925 21.4104 44.7707 21.2295V21.2295ZM33.3332 36.4587C33.3332 37.0112 33.1137 37.5411 32.723 37.9318C32.3323 38.3225 31.8024 38.542 31.2499 38.542H14.5832C14.0307 38.542 13.5008 38.3225 13.1101 37.9318C12.7194 37.5411 12.4999 37.0112 12.4999 36.4587V28.8962L21.8957 34.1045L22.2082 34.2295H22.3957C22.5687 34.2513 22.7436 34.2513 22.9166 34.2295C23.0895 34.2513 23.2645 34.2513 23.4374 34.2295H23.6249C23.7355 34.2062 23.8412 34.1639 23.9374 34.1045L33.3332 28.8962V36.4587ZM22.9166 29.917L8.45824 21.8753L22.9166 13.8337L37.3749 21.8753L22.9166 29.917Z" fill="black"/>
</svg>
