<svg width="100" height="50" viewBox="0 0 100 50" fill="none" xmlns="http://www.w3.org/2000/svg">
<path d="M93.7501 41.667H91.6667V10.417C91.6667 9.86446 91.4473 9.33455 91.0566 8.94385C90.6659 8.55315 90.1359 8.33366 89.5834 8.33366C89.0309 8.33366 88.501 8.55315 88.1103 8.94385C87.7196 9.33455 87.5001 9.86446 87.5001 10.417V41.667H83.3334V27.0837C83.3334 26.5311 83.1139 26.0012 82.7232 25.6105C82.3325 25.2198 81.8026 25.0003 81.2501 25.0003C80.6975 25.0003 80.1676 25.2198 79.7769 25.6105C79.3862 26.0012 79.1667 26.5311 79.1667 27.0837V41.667H75.0001V18.7503C75.0001 18.1978 74.7806 17.6679 74.3899 17.2772C73.9992 16.8865 73.4693 16.667 72.9167 16.667C72.3642 16.667 71.8343 16.8865 71.4436 17.2772C71.0529 17.6679 70.8334 18.1978 70.8334 18.7503V41.667H66.6667V35.417C66.6667 34.8645 66.4473 34.3346 66.0566 33.9439C65.6659 33.5531 65.1359 33.3337 64.5834 33.3337C64.0309 33.3337 63.501 33.5531 63.1103 33.9439C62.7196 34.3346 62.5001 34.8645 62.5001 35.417V41.667H58.3334V6.25033C58.3334 5.69779 58.1139 5.16789 57.7232 4.77719C57.3325 4.38649 56.8026 4.16699 56.2501 4.16699C55.6975 4.16699 55.1676 4.38649 54.7769 4.77719C54.3862 5.16789 54.1667 5.69779 54.1667 6.25033V43.7503C54.1667 44.3029 54.3862 44.8328 54.7769 45.2235C55.1676 45.6142 55.6975 45.8337 56.2501 45.8337H93.7501C94.3026 45.8337 94.8325 45.6142 95.2232 45.2235C95.6139 44.8328 95.8334 44.3029 95.8334 43.7503C95.8334 43.1978 95.6139 42.6679 95.2232 42.2772C94.8325 41.8865 94.3026 41.667 93.7501 41.667Z" fill="black"/>
<path d="M44.7707 21.2295L42.6874 20.0837L23.9374 9.66699H23.7082C23.5805 9.61299 23.448 9.57114 23.3124 9.54199H22.9166H22.5416C22.3992 9.57116 22.2598 9.61299 22.1249 9.66699H21.8957L3.14574 20.0837C2.82512 20.2654 2.55844 20.5289 2.3729 20.8473C2.18736 21.1657 2.0896 21.5276 2.0896 21.8962C2.0896 22.2647 2.18736 22.6266 2.3729 22.945C2.55844 23.2635 2.82512 23.527 3.14574 23.7087L8.33324 26.5837V36.4587C8.33324 38.1163 8.99172 39.706 10.1638 40.8781C11.3359 42.0502 12.9256 42.7087 14.5832 42.7087H31.2499C32.9075 42.7087 34.4972 42.0502 35.6693 40.8781C36.8414 39.706 37.4999 38.1163 37.4999 36.4587V26.5837L41.6666 24.2503V30.2087C41.6666 30.7612 41.8861 31.2911 42.2768 31.6818C42.6675 32.0725 43.1974 32.292 43.7499 32.292C44.3024 32.292 44.8323 32.0725 45.223 31.6818C45.6137 31.2911 45.8332 30.7612 45.8332 30.2087V23.042C45.8326 22.6728 45.7339 22.3105 45.5472 21.992C45.3605 21.6735 45.0925 21.4104 44.7707 21.2295V21.2295ZM33.3332 36.4587C33.3332 37.0112 33.1137 37.5411 32.723 37.9318C32.3323 38.3225 31.8024 38.542 31.2499 38.542H14.5832C14.0307 38.542 13.5008 38.3225 13.1101 37.9318C12.7194 37.5411 12.4999 37.0112 12.4999 36.4587V28.8962L21.8957 34.1045L22.2082 34.2295H22.3957C22.5687 34.2513 22.7436 34.2513 22.9166 34.2295C23.0895 34.2513 23.2645 34.2513 23.4374 34.2295H23.6249C23.7355 34.2062 23.8412 34.1639 23.9374 34.1045L33.3332 28.8962V36.4587ZM22.9166 29.917L8.45824 21.8753L22.9166 13.8337L37.3749 21.8753L22.9166 29.917Z" fill="black"/>
</svg>
